<svg xmlns="http://www.w3.org/2000/svg" width="18" height="24" fill="none">
  <g clip-path="url(#a)">
    <path fill="#2E2F42" d="m14.73 13.87-1.84-.21c-.44-.06-.88.1-1.19.4l-1.33 1.34a10.89 10.89 0 0 1-4.77-4.77l1.34-1.34c.31-.31.46-.74.41-1.19l-.2-1.82A1.45 1.45 0 0 0 5.7 5H4.45c-.82 0-1.5.68-1.45 1.5A12.3 12.3 0 0 0 14.5 18c.82.05 1.5-.63 1.5-1.45V15.3c0-.73-.54-1.35-1.27-1.43Z"/>
  </g>
  <defs>
    <clipPath id="a">
      <path fill="#fff" d="M0 0h18v24H0z"/>
    </clipPath>
  </defs>
</svg>
